<?xml version="1.0" encoding="UTF-8" standalone="no"?><svg xmlns="http://www.w3.org/2000/svg" xmlns:xlink="http://www.w3.org/1999/xlink" contentScriptType="application/ecmascript" contentStyleType="text/css" height="207px" preserveAspectRatio="none" style="width:602px;height:207px;" version="1.1" viewBox="0 0 602 207" width="602px" zoomAndPan="magnify"><defs><filter height="300%" id="f1clndsbyk246i" width="300%" x="-1" y="-1"><feGaussianBlur result="blurOut" stdDeviation="2.0"/><feColorMatrix in="blurOut" result="blurOut2" type="matrix" values="0 0 0 0 0 0 0 0 0 0 0 0 0 0 0 0 0 0 .4 0"/><feOffset dx="4.0" dy="4.0" in="blurOut2" result="blurOut3"/><feBlend in="SourceGraphic" in2="blurOut3" mode="normal"/></filter></defs><g><!--MD5=[4541fb81c80c07473fe4b07432ef0971]
entity app--><ellipse cx="45" cy="17.5" fill="#FEFECE" filter="url(#f1clndsbyk246i)" rx="8" ry="8" style="stroke: #A80036; stroke-width: 1.5;"/><path d="M45,25.5 L45,52.5 M32,33.5 L58,33.5 M45,52.5 L32,67.5 M45,52.5 L58,67.5 " fill="none" filter="url(#f1clndsbyk246i)" style="stroke: #A80036; stroke-width: 1.5;"/><text fill="#000000" font-family="sans-serif" font-size="14" lengthAdjust="spacingAndGlyphs" textLength="78" x="6" y="86.5352">Application</text><!--MD5=[047b2bc0105c3139e3e48092a86620e4]
entity creator--><rect fill="#FEFECE" filter="url(#f1clndsbyk246i)" height="36.4883" style="stroke: #A80036; stroke-width: 1.5;" width="197" x="149.5" y="30.5"/><rect fill="#FEFECE" height="5" style="stroke: #A80036; stroke-width: 1.5;" width="10" x="144.5" y="35.5"/><rect fill="#FEFECE" height="5" style="stroke: #A80036; stroke-width: 1.5;" width="10" x="144.5" y="56.9883"/><text fill="#000000" font-family="sans-serif" font-size="14" lengthAdjust="spacingAndGlyphs" textLength="177" x="159.5" y="54.0352">Vertica Native File Creator</text><!--MD5=[82f23cda116f7491e2ad662b9686858a]
entity files--><rect fill="#FEFECE" filter="url(#f1clndsbyk246i)" height="32.4883" style="stroke: #000000; stroke-width: 1.5;" width="144" x="425" y="34.5"/><rect fill="#FEFECE" height="32.4883" style="stroke: #000000; stroke-width: 1.5;" width="144" x="421" y="30.5"/><text fill="#000000" font-family="sans-serif" font-size="14" lengthAdjust="spacingAndGlyphs" textLength="128" x="429" y="52.0352">Vertica Native Files</text><!--MD5=[82baf439a90eede0fb64fe0703dd92f7]
entity loader--><rect fill="#FEFECE" filter="url(#f1clndsbyk246i)" height="36.4883" style="stroke: #A80036; stroke-width: 1.5;" width="192" x="399" y="154.5"/><rect fill="#FEFECE" height="5" style="stroke: #A80036; stroke-width: 1.5;" width="10" x="394" y="159.5"/><rect fill="#FEFECE" height="5" style="stroke: #A80036; stroke-width: 1.5;" width="10" x="394" y="180.9883"/><text fill="#000000" font-family="sans-serif" font-size="14" lengthAdjust="spacingAndGlyphs" textLength="172" x="409" y="178.0352">Vertica Native File Loader</text><!--MD5=[7468467f3b6b392f1d176d828c753b77]
entity db--><path d="M243.5,160 C243.5,150 277,150 277,150 C277,150 310.5,150 310.5,160 L310.5,185.4883 C310.5,195.4883 277,195.4883 277,195.4883 C277,195.4883 243.5,195.4883 243.5,185.4883 L243.5,160 " fill="#FEFECE" filter="url(#f1clndsbyk246i)" style="stroke: #000000; stroke-width: 1.5;"/><path d="M243.5,160 C243.5,170 277,170 277,170 C277,170 310.5,170 310.5,160 " fill="none" style="stroke: #000000; stroke-width: 1.5;"/><text fill="#000000" font-family="sans-serif" font-size="14" lengthAdjust="spacingAndGlyphs" textLength="47" x="253.5" y="187.5352">Vertica</text><!--MD5=[0489bbdae4b96fd70c290cffeb475dc1]
link app to creator--><path d="M84.14,48.5 C101.42,48.5 122.64,48.5 144,48.5 " fill="none" id="app-&gt;creator" style="stroke: #A80036; stroke-width: 1.0;"/><polygon fill="#A80036" points="149.14,48.5,140.14,44.5,144.14,48.5,140.14,52.5,149.14,48.5" style="stroke: #A80036; stroke-width: 1.0;"/><text fill="#000000" font-family="sans-serif" font-size="13" lengthAdjust="spacingAndGlyphs" textLength="29" x="102.25" y="42.0684">uses</text><!--MD5=[b3ea34bd338f30af01bfd5a07b5ad188]
link creator to files--><path d="M346.69,48.5 C369.58,48.5 393.65,48.5 415.59,48.5 " fill="none" id="creator-&gt;files" style="stroke: #A80036; stroke-width: 1.0;"/><polygon fill="#A80036" points="420.82,48.5,411.82,44.5,415.82,48.5,411.82,52.5,420.82,48.5" style="stroke: #A80036; stroke-width: 1.0;"/><text fill="#000000" font-family="sans-serif" font-size="13" lengthAdjust="spacingAndGlyphs" textLength="38" x="364.75" y="42.0684">writes</text><!--MD5=[51c0f1193367a24690e4c3db864c6fe1]
link files to loader--><path d="M495,66.72 C495,88.34 495,125.46 495,149.22 " fill="none" id="files-&gt;loader" style="stroke: #A80036; stroke-width: 1.0;"/><polygon fill="#A80036" points="495,154.37,499,145.37,495,149.37,491,145.37,495,154.37" style="stroke: #A80036; stroke-width: 1.0;"/><!--MD5=[d79d1f1f097f047662ce8941cc79b077]
reverse link db to loader--><path d="M315.71,172.5 C338.86,172.5 369.39,172.5 398.68,172.5 " fill="none" id="db&lt;-loader" style="stroke: #A80036; stroke-width: 1.0;"/><polygon fill="#A80036" points="310.58,172.5,319.58,176.5,315.58,172.5,319.58,168.5,310.58,172.5" style="stroke: #A80036; stroke-width: 1.0;"/><text fill="#000000" font-family="sans-serif" font-size="13" lengthAdjust="spacingAndGlyphs" textLength="52" x="328.75" y="166.0684">via copy</text><!--MD5=[7a0ba2b13d40b2cdbb55b3de478bd469]
@startuml

actor "Application" as app
component "Vertica Native File Creator" as creator
collections "Vertica Native Files" as files
component "Vertica Native File Loader" as loader
database "Vertica" as db

app -> creator : uses
creator -> files : writes
files - -> loader
loader -left-> db : via copy

@enduml

PlantUML version 1.2020.01(Sun Feb 16 10:40:32 MST 2020)
(GPL source distribution)
Java Runtime: OpenJDK Runtime Environment
JVM: OpenJDK 64-Bit Server VM
Java Version: 13.0.2+8
Operating System: Mac OS X
Default Encoding: UTF-8
Language: en
Country: US
--></g></svg>