<?xml version="1.0" encoding="UTF-8" standalone="no"?><svg xmlns="http://www.w3.org/2000/svg" xmlns:xlink="http://www.w3.org/1999/xlink" contentScriptType="application/ecmascript" contentStyleType="text/css" height="532px" preserveAspectRatio="none" style="width:297px;height:532px;" version="1.1" viewBox="0 0 297 532" width="297px" zoomAndPan="magnify"><defs><filter height="300%" id="f3e6pru5wid5n" width="300%" x="-1" y="-1"><feGaussianBlur result="blurOut" stdDeviation="2.0"/><feColorMatrix in="blurOut" result="blurOut2" type="matrix" values="0 0 0 0 0 0 0 0 0 0 0 0 0 0 0 0 0 0 .4 0"/><feOffset dx="4.0" dy="4.0" in="blurOut2" result="blurOut3"/><feBlend in="SourceGraphic" in2="blurOut3" mode="normal"/></filter></defs><g><!--cluster Vertica--><path d="M14,434 C14,424 85,424 85,424 C85,424 156,424 156,434 L156,510 C156,520 85,520 85,520 C85,520 14,520 14,510 L14,434 " fill="#FFFFFF" filter="url(#f3e6pru5wid5n)" style="stroke: #000000; stroke-width: 1.5;"/><path d="M14,434 C14,444 85,444 85,444 C85,444 156,444 156,434 " fill="none" style="stroke: #000000; stroke-width: 1.5;"/><text fill="#000000" font-family="sans-serif" font-size="14" font-weight="bold" lengthAdjust="spacingAndGlyphs" textLength="56" x="57" y="458.9951">Vertica</text><!--entity syslog_table--><rect fill="#FEFECE" filter="url(#f3e6pru5wid5n)" height="46.2969" style="stroke: #000000; stroke-width: 1.5;" width="125" x="22.5" y="466"/><path d="M64.1667,467 L64.1667,471 L57.1667,478 L22.5,478 " fill="none" style="stroke: #000000; stroke-width: 1.5;"/><text fill="#000000" font-family="sans-serif" font-size="14" lengthAdjust="spacingAndGlyphs" textLength="85" x="37.5" y="498.9951">syslog_table</text><!--entity producer--><rect fill="#FEFECE" filter="url(#f3e6pru5wid5n)" height="52.5938" style="stroke: #A80036; stroke-width: 1.5;" width="83" x="43.5" y="8"/><rect fill="#FEFECE" height="5" style="stroke: #A80036; stroke-width: 1.5;" width="10" x="38.5" y="13"/><rect fill="#FEFECE" height="5" style="stroke: #A80036; stroke-width: 1.5;" width="10" x="38.5" y="50.5938"/><text fill="#000000" font-family="sans-serif" font-size="14" lengthAdjust="spacingAndGlyphs" textLength="45" x="53.5" y="30.9951">Syslog</text><text fill="#000000" font-family="sans-serif" font-size="14" lengthAdjust="spacingAndGlyphs" textLength="63" x="53.5" y="47.292">Producer</text><!--entity consumer--><rect fill="#FEFECE" filter="url(#f3e6pru5wid5n)" height="52.5938" style="stroke: #A80036; stroke-width: 1.5;" width="92" x="39" y="122"/><rect fill="#FEFECE" height="5" style="stroke: #A80036; stroke-width: 1.5;" width="10" x="34" y="127"/><rect fill="#FEFECE" height="5" style="stroke: #A80036; stroke-width: 1.5;" width="10" x="34" y="164.5938"/><text fill="#000000" font-family="sans-serif" font-size="14" lengthAdjust="spacingAndGlyphs" textLength="45" x="49" y="144.9951">Syslog</text><text fill="#000000" font-family="sans-serif" font-size="14" lengthAdjust="spacingAndGlyphs" textLength="72" x="49" y="161.292">Consumer</text><!--entity vnf--><rect fill="#FEFECE" filter="url(#f3e6pru5wid5n)" height="36.2969" style="stroke: #A80036; stroke-width: 1.5;" width="88" x="198" y="130.5"/><rect fill="#FEFECE" height="5" style="stroke: #A80036; stroke-width: 1.5;" width="10" x="193" y="135.5"/><rect fill="#FEFECE" height="5" style="stroke: #A80036; stroke-width: 1.5;" width="10" x="193" y="156.7969"/><text fill="#000000" font-family="sans-serif" font-size="14" lengthAdjust="spacingAndGlyphs" textLength="68" x="208" y="153.4951">VNF Crate</text><!--entity files--><rect fill="#FEFECE" filter="url(#f3e6pru5wid5n)" height="32.2969" style="stroke: #000000; stroke-width: 1.5;" width="144" x="15" y="256"/><rect fill="#FEFECE" height="32.2969" style="stroke: #000000; stroke-width: 1.5;" width="144" x="11" y="252"/><text fill="#000000" font-family="sans-serif" font-size="14" lengthAdjust="spacingAndGlyphs" textLength="128" x="19" y="272.9951">Vertica Native Files</text><!--entity loader--><rect fill="#FEFECE" filter="url(#f3e6pru5wid5n)" height="36.2969" style="stroke: #A80036; stroke-width: 1.5;" width="98" x="36" y="349"/><rect fill="#FEFECE" height="5" style="stroke: #A80036; stroke-width: 1.5;" width="10" x="31" y="354"/><rect fill="#FEFECE" height="5" style="stroke: #A80036; stroke-width: 1.5;" width="10" x="31" y="375.2969"/><text fill="#000000" font-family="sans-serif" font-size="14" lengthAdjust="spacingAndGlyphs" textLength="78" x="46" y="371.9951">VNF Loader</text><!--link producer to consumer--><path d="M85,61.2279 C85,77.8081 85,99.2022 85,116.6583 " fill="none" id="producer-consumer" style="stroke: #A80036; stroke-width: 1.0;"/><polygon fill="#A80036" points="85,121.9395,89,112.9395,85,116.9395,81,112.9395,85,121.9395" style="stroke: #A80036; stroke-width: 1.0;"/><!--link consumer to vnf--><path d="M131.256,148.5 C150.6024,148.5 173.1112,148.5 192.7641,148.5 " fill="none" id="consumer-vnf" style="stroke: #A80036; stroke-width: 1.0;"/><polygon fill="#A80036" points="197.96,148.5,188.96,144.5,192.96,148.5,188.96,152.5,197.96,148.5" style="stroke: #A80036; stroke-width: 1.0;"/><text fill="#000000" font-family="sans-serif" font-size="13" lengthAdjust="spacingAndGlyphs" textLength="30" x="149.5" y="141.5669">uses</text><!--link consumer to files--><path d="M85,175.1637 C85,196.4529 85,225.9997 85,246.4303 " fill="none" id="consumer-files" style="stroke: #A80036; stroke-width: 1.0;"/><polygon fill="#A80036" points="85,251.6766,89,242.6766,85,246.6766,81,242.6766,85,251.6766" style="stroke: #A80036; stroke-width: 1.0;"/><text fill="#000000" font-family="sans-serif" font-size="13" lengthAdjust="spacingAndGlyphs" textLength="37" x="86" y="218.0669">writes</text><!--link files to loader--><path d="M85,288.245 C85,303.9612 85,326.7346 85,343.7539 " fill="none" id="files-loader" style="stroke: #A80036; stroke-width: 1.0;"/><polygon fill="#A80036" points="85,348.8369,89,339.8369,85,343.8369,81,339.8369,85,348.8369" style="stroke: #A80036; stroke-width: 1.0;"/><!--link loader to syslog_table--><path d="M85,385.0015 C85,404.9669 85,437.436 85,460.7862 " fill="none" id="loader-syslog_table" style="stroke: #A80036; stroke-width: 1.0;"/><polygon fill="#A80036" points="85,465.9183,89,456.9183,85,460.9183,81,456.9183,85,465.9183" style="stroke: #A80036; stroke-width: 1.0;"/><!--
@startuml


component "Syslog\nProducer" as producer
component "Syslog\nConsumer" as consumer
component "VNF Crate" as vnf
collections "Vertica Native Files" as files
component "VNF Loader" as loader
database "Vertica" {
    frame syslog_table
}

producer - -> consumer
consumer -> vnf: uses
consumer - -> files: writes
files - -> loader
loader - -> syslog_table

@enduml

PlantUML version 1.2018.13(Mon Nov 26 12:11:51 EST 2018)
(GPL source distribution)
Java Runtime: OpenJDK Runtime Environment
JVM: Eclipse OpenJ9 VM
Java Version: 1.8.0_222-b10
Operating System: Linux
OS Version: 4.19.0-5-amd64
Default Encoding: UTF-8
Language: en
Country: US
--></g></svg>