<?xml version="1.0" encoding="UTF-8" standalone="no"?><svg xmlns="http://www.w3.org/2000/svg" xmlns:xlink="http://www.w3.org/1999/xlink" contentScriptType="application/ecmascript" contentStyleType="text/css" height="532px" preserveAspectRatio="none" style="width:294px;height:532px;" version="1.1" viewBox="0 0 294 532" width="294px" zoomAndPan="magnify"><defs><filter height="300%" id="f3e6pru5wid5n" width="300%" x="-1" y="-1"><feGaussianBlur result="blurOut" stdDeviation="2.0"/><feColorMatrix in="blurOut" result="blurOut2" type="matrix" values="0 0 0 0 0 0 0 0 0 0 0 0 0 0 0 0 0 0 .4 0"/><feOffset dx="4.0" dy="4.0" in="blurOut2" result="blurOut3"/><feBlend in="SourceGraphic" in2="blurOut3" mode="normal"/></filter></defs><g><!--cluster Vertica--><path d="M14,434 C14,424 84,424 84,424 C84,424 154,424 154,434 L154,510 C154,520 84,520 84,520 C84,520 14,520 14,510 L14,434 " fill="#FFFFFF" filter="url(#f3e6pru5wid5n)" style="stroke: #000000; stroke-width: 1.5;"/><path d="M14,434 C14,444 84,444 84,444 C84,444 154,444 154,434 " fill="none" style="stroke: #000000; stroke-width: 1.5;"/><text fill="#000000" font-family="sans-serif" font-size="14" font-weight="bold" lengthAdjust="spacingAndGlyphs" textLength="50" x="59" y="459.5352">Vertica</text><!--entity syslog_table--><rect fill="#FEFECE" filter="url(#f3e6pru5wid5n)" height="46.4883" style="stroke: #000000; stroke-width: 1.5;" width="124" x="22" y="466"/><path d="M63.3333,467 L63.3333,471 L56.3333,478 L22,478 " fill="none" style="stroke: #000000; stroke-width: 1.5;"/><text fill="#000000" font-family="sans-serif" font-size="14" lengthAdjust="spacingAndGlyphs" textLength="84" x="37" y="499.5352">syslog_table</text><!--entity producer--><rect fill="#FEFECE" filter="url(#f3e6pru5wid5n)" height="52.9766" style="stroke: #A80036; stroke-width: 1.5;" width="82" x="43" y="8"/><rect fill="#FEFECE" height="5" style="stroke: #A80036; stroke-width: 1.5;" width="10" x="38" y="13"/><rect fill="#FEFECE" height="5" style="stroke: #A80036; stroke-width: 1.5;" width="10" x="38" y="50.9766"/><text fill="#000000" font-family="sans-serif" font-size="14" lengthAdjust="spacingAndGlyphs" textLength="44" x="53" y="31.5352">Syslog</text><text fill="#000000" font-family="sans-serif" font-size="14" lengthAdjust="spacingAndGlyphs" textLength="62" x="53" y="48.0234">Producer</text><!--entity consumer--><rect fill="#FEFECE" filter="url(#f3e6pru5wid5n)" height="52.9766" style="stroke: #A80036; stroke-width: 1.5;" width="91" x="38.5" y="122"/><rect fill="#FEFECE" height="5" style="stroke: #A80036; stroke-width: 1.5;" width="10" x="33.5" y="127"/><rect fill="#FEFECE" height="5" style="stroke: #A80036; stroke-width: 1.5;" width="10" x="33.5" y="164.9766"/><text fill="#000000" font-family="sans-serif" font-size="14" lengthAdjust="spacingAndGlyphs" textLength="44" x="48.5" y="145.5352">Syslog</text><text fill="#000000" font-family="sans-serif" font-size="14" lengthAdjust="spacingAndGlyphs" textLength="71" x="48.5" y="162.0234">Consumer</text><!--entity vnf--><rect fill="#FEFECE" filter="url(#f3e6pru5wid5n)" height="36.4883" style="stroke: #A80036; stroke-width: 1.5;" width="88" x="195" y="130.5"/><rect fill="#FEFECE" height="5" style="stroke: #A80036; stroke-width: 1.5;" width="10" x="190" y="135.5"/><rect fill="#FEFECE" height="5" style="stroke: #A80036; stroke-width: 1.5;" width="10" x="190" y="156.9883"/><text fill="#000000" font-family="sans-serif" font-size="14" lengthAdjust="spacingAndGlyphs" textLength="68" x="205" y="154.0352">VNF Crate</text><!--entity files--><rect fill="#FEFECE" filter="url(#f3e6pru5wid5n)" height="32.4883" style="stroke: #000000; stroke-width: 1.5;" width="144" x="14" y="256"/><rect fill="#FEFECE" height="32.4883" style="stroke: #000000; stroke-width: 1.5;" width="144" x="10" y="252"/><text fill="#000000" font-family="sans-serif" font-size="14" lengthAdjust="spacingAndGlyphs" textLength="128" x="18" y="273.5352">Vertica Native Files</text><!--entity loader--><rect fill="#FEFECE" filter="url(#f3e6pru5wid5n)" height="36.4883" style="stroke: #A80036; stroke-width: 1.5;" width="98" x="35" y="349"/><rect fill="#FEFECE" height="5" style="stroke: #A80036; stroke-width: 1.5;" width="10" x="30" y="354"/><rect fill="#FEFECE" height="5" style="stroke: #A80036; stroke-width: 1.5;" width="10" x="30" y="375.4883"/><text fill="#000000" font-family="sans-serif" font-size="14" lengthAdjust="spacingAndGlyphs" textLength="78" x="45" y="372.5352">VNF Loader</text><!--link producer to consumer--><path d="M84,61.2279 C84,77.8081 84,99.2022 84,116.6583 " fill="none" id="producer-consumer" style="stroke: #A80036; stroke-width: 1.0;"/><polygon fill="#A80036" points="84,121.9395,88,112.9395,84,116.9395,80,112.9395,84,121.9395" style="stroke: #A80036; stroke-width: 1.0;"/><!--link consumer to vnf--><path d="M129.6668,148.5 C148.5221,148.5 170.4203,148.5 189.6447,148.5 " fill="none" id="consumer-vnf" style="stroke: #A80036; stroke-width: 1.0;"/><polygon fill="#A80036" points="194.9914,148.5,185.9914,144.5,189.9914,148.5,185.9914,152.5,194.9914,148.5" style="stroke: #A80036; stroke-width: 1.0;"/><text fill="#000000" font-family="sans-serif" font-size="13" lengthAdjust="spacingAndGlyphs" textLength="29" x="147.75" y="142.0684">uses</text><!--link consumer to files--><path d="M84,175.1637 C84,196.4529 84,225.9997 84,246.4303 " fill="none" id="consumer-files" style="stroke: #A80036; stroke-width: 1.0;"/><polygon fill="#A80036" points="84,251.6766,88,242.6766,84,246.6766,80,242.6766,84,251.6766" style="stroke: #A80036; stroke-width: 1.0;"/><text fill="#000000" font-family="sans-serif" font-size="13" lengthAdjust="spacingAndGlyphs" textLength="38" x="85" y="218.5684">writes</text><!--link files to loader--><path d="M84,288.245 C84,303.9612 84,326.7346 84,343.7539 " fill="none" id="files-loader" style="stroke: #A80036; stroke-width: 1.0;"/><polygon fill="#A80036" points="84,348.8369,88,339.8369,84,343.8369,80,339.8369,84,348.8369" style="stroke: #A80036; stroke-width: 1.0;"/><!--link loader to syslog_table--><path d="M84,385.0015 C84,404.9669 84,437.436 84,460.7862 " fill="none" id="loader-syslog_table" style="stroke: #A80036; stroke-width: 1.0;"/><polygon fill="#A80036" points="84,465.9183,88,456.9183,84,460.9183,80,456.9183,84,465.9183" style="stroke: #A80036; stroke-width: 1.0;"/><!--
@startuml


component "Syslog\nProducer" as producer
component "Syslog\nConsumer" as consumer
component "VNF Crate" as vnf
collections "Vertica Native Files" as files
component "VNF Loader" as loader
database "Vertica" {
    frame syslog_table
}

producer - -> consumer
consumer -> vnf: uses
consumer - -> files: writes
files - -> loader
loader - -> syslog_table

@enduml

PlantUML version 1.2018.12(Sun Oct 21 06:15:15 EDT 2018)
(GPL source distribution)
Java Runtime: Java(TM) SE Runtime Environment
JVM: Java HotSpot(TM) 64-Bit Server VM
Java Version: 1.8.0_191-b12
Operating System: Mac OS X
OS Version: 10.13.6
Default Encoding: UTF-8
Language: en
Country: US
--></g></svg>